name walk 2
datacolumns 19
datarows 55
range 0.660833 0.705833
endheader
time	ground_force_vx	ground_force_vy	ground_force_vz	ground_torque_x	ground_torque_y	ground_torque_z	ground_force_vx	ground_force_vy	ground_force_vz	ground_torque_x	ground_torque_y	ground_torque_z	ground_force_px	ground_force_py	ground_force_pz	ground_force_px	ground_force_py	ground_force_pz
0.660833	0.000000	0.000000	0.000000	0.000000	0.000000	0.000000	-44.564060	470.533545	19.866775	0.000000	1.244884	0.000000	0.000000	0.000000	0.000000	-0.792850	-0.006000	-0.307904	
0.661667	0.000000	0.000000	0.000000	0.000000	0.000000	0.000000	-44.125108	468.292193	19.395516	0.000000	1.217636	0.000000	0.000000	0.000000	0.000000	-0.792237	-0.006000	-0.307819	
0.662500	0.000000	0.000000	0.000000	0.000000	0.000000	0.000000	-43.690356	466.106090	18.917222	0.000000	1.190079	0.000000	0.000000	0.000000	0.000000	-0.791541	-0.006000	-0.307735	
0.663333	0.000000	0.000000	0.000000	0.000000	0.000000	0.000000	-43.259625	463.974666	18.432748	0.000000	1.162315	0.000000	0.000000	0.000000	0.000000	-0.790764	-0.006000	-0.307668	
0.664167	0.000000	0.000000	0.000000	0.000000	0.000000	0.000000	-42.832729	461.897307	17.942986	0.000000	1.134448	0.000000	0.000000	0.000000	0.000000	-0.789956	-0.006000	-0.307618	
0.665000	0.000000	0.000000	0.000000	0.000000	0.000000	0.000000	-42.409495	459.873349	17.448880	0.000000	1.106583	0.000000	0.000000	0.000000	0.000000	-0.789222	-0.006000	-0.307578	
0.665833	0.000000	0.000000	0.000000	0.000000	0.000000	0.000000	-41.989763	457.902038	16.951421	0.000000	1.078833	0.000000	0.000000	0.000000	0.000000	-0.788646	-0.006000	-0.307554	
0.666667	0.000000	0.000000	0.000000	0.000000	0.000000	0.000000	-41.573391	455.982507	16.451640	0.000000	1.051323	0.000000	0.000000	0.000000	0.000000	-0.788207	-0.006000	-0.307545	
0.667500	0.000000	0.000000	0.000000	0.000000	0.000000	0.000000	-41.160258	454.113768	15.950608	0.000000	1.024182	0.000000	0.000000	0.000000	0.000000	-0.787803	-0.006000	-0.307542	
0.668333	0.000000	0.000000	0.000000	0.000000	0.000000	0.000000	-40.750273	452.294709	15.449435	0.000000	0.997534	0.000000	0.000000	0.000000	0.000000	-0.787347	-0.006000	-0.307540	
0.669167	0.000000	0.000000	0.000000	0.000000	0.000000	0.000000	-40.343384	450.524068	14.949251	0.000000	0.971493	0.000000	0.000000	0.000000	0.000000	-0.786814	-0.006000	-0.307543	
0.670000	0.000000	0.000000	0.000000	0.000000	0.000000	0.000000	-39.939580	448.800427	14.451200	0.000000	0.946160	0.000000	0.000000	0.000000	0.000000	-0.786215	-0.006000	-0.307564	
0.670833	0.000000	0.000000	0.000000	0.000000	0.000000	0.000000	-39.538886	447.122255	13.956425	0.000000	0.921627	0.000000	0.000000	0.000000	0.000000	-0.785575	-0.006000	-0.307616	
0.671667	0.000000	0.000000	0.000000	0.000000	0.000000	0.000000	-39.141365	445.487963	13.466066	0.000000	0.897973	0.000000	0.000000	0.000000	0.000000	-0.784962	-0.006000	-0.307704	
0.672500	0.000000	0.000000	0.000000	0.000000	0.000000	0.000000	-38.747105	443.895915	12.981255	0.000000	0.875265	0.000000	0.000000	0.000000	0.000000	-0.784459	-0.006000	-0.307803	
0.673333	0.000000	0.000000	0.000000	0.000000	0.000000	0.000000	-38.356202	442.344420	12.503099	0.000000	0.853564	0.000000	0.000000	0.000000	0.000000	-0.784101	-0.006000	-0.307855	
0.674167	0.000000	0.000000	0.000000	0.000000	0.000000	0.000000	-37.968752	440.831737	12.032666	0.000000	0.832934	0.000000	0.000000	0.000000	0.000000	-0.783847	-0.006000	-0.307803	
0.675000	0.000000	0.000000	0.000000	0.000000	0.000000	0.000000	-37.584855	439.356097	11.570996	0.000000	0.813439	0.000000	0.000000	0.000000	0.000000	-0.783594	-0.006000	-0.307630	
0.675833	0.000000	0.000000	0.000000	0.000000	0.000000	0.000000	-37.204613	437.915733	11.119123	0.000000	0.795151	0.000000	0.000000	0.000000	0.000000	-0.783258	-0.006000	-0.307375	
0.676667	0.000000	0.000000	0.000000	0.000000	0.000000	0.000000	-36.828125	436.508883	10.678085	0.000000	0.778140	0.000000	0.000000	0.000000	0.000000	-0.782836	-0.006000	-0.307099	
0.677500	0.000000	0.000000	0.000000	0.000000	0.000000	0.000000	-36.455479	435.133794	10.248913	0.000000	0.762481	0.000000	0.000000	0.000000	0.000000	-0.782365	-0.006000	-0.306836	
0.678333	0.000000	0.000000	0.000000	0.000000	0.000000	0.000000	-36.086759	433.788737	9.832616	0.000000	0.748237	0.000000	0.000000	0.000000	0.000000	-0.781847	-0.006000	-0.306603	
0.679167	0.000000	0.000000	0.000000	0.000000	0.000000	0.000000	-35.722058	432.472040	9.430169	0.000000	0.735455	0.000000	0.000000	0.000000	0.000000	-0.781242	-0.006000	-0.306434	
0.680000	0.000000	0.000000	0.000000	0.000000	0.000000	0.000000	-35.361476	431.182116	9.042502	0.000000	0.724164	0.000000	0.000000	0.000000	0.000000	-0.780515	-0.006000	-0.306369	
0.680833	0.000000	0.000000	0.000000	0.000000	0.000000	0.000000	-35.005100	429.917485	8.670479	0.000000	0.714383	0.000000	0.000000	0.000000	0.000000	-0.779686	-0.006000	-0.306422	
0.681667	0.000000	0.000000	0.000000	0.000000	0.000000	0.000000	-34.652996	428.676770	8.314874	0.000000	0.706117	0.000000	0.000000	0.000000	0.000000	-0.778845	-0.006000	-0.306567	
0.682500	0.000000	0.000000	0.000000	0.000000	0.000000	0.000000	-34.305203	427.458685	7.976365	0.000000	0.699365	0.000000	0.000000	0.000000	0.000000	-0.778115	-0.006000	-0.306745	
0.683333	0.000000	0.000000	0.000000	0.000000	0.000000	0.000000	-33.961728	426.262024	7.655513	0.000000	0.694110	0.000000	0.000000	0.000000	0.000000	-0.777600	-0.006000	-0.306876	
0.684167	0.000000	0.000000	0.000000	0.000000	0.000000	0.000000	-33.622550	425.085654	7.352760	0.000000	0.690315	0.000000	0.000000	0.000000	0.000000	-0.777320	-0.006000	-0.306901	
0.685000	0.000000	0.000000	0.000000	0.000000	0.000000	0.000000	-33.287622	423.928489	7.068446	0.000000	0.687929	0.000000	0.000000	0.000000	0.000000	-0.777193	-0.006000	-0.306827	
0.685833	0.000000	0.000000	0.000000	0.000000	0.000000	0.000000	-32.956857	422.789495	6.802827	0.000000	0.686895	0.000000	0.000000	0.000000	0.000000	-0.777070	-0.006000	-0.306735	
0.686667	0.000000	0.000000	0.000000	0.000000	0.000000	0.000000	-32.630114	421.667738	6.556079	0.000000	0.687156	0.000000	0.000000	0.000000	0.000000	-0.776825	-0.006000	-0.306714	
0.687500	0.000000	0.000000	0.000000	0.000000	0.000000	0.000000	-32.307195	420.562435	6.328281	0.000000	0.688655	0.000000	0.000000	0.000000	0.000000	-0.776395	-0.006000	-0.306789	
0.688333	0.000000	0.000000	0.000000	0.000000	0.000000	0.000000	-31.987856	419.472956	6.119393	0.000000	0.691322	0.000000	0.000000	0.000000	0.000000	-0.775752	-0.006000	-0.306941	
0.689167	0.000000	0.000000	0.000000	0.000000	0.000000	0.000000	-31.671814	418.398808	5.929252	0.000000	0.695080	0.000000	0.000000	0.000000	0.000000	-0.774925	-0.006000	-0.307159	
0.690000	0.000000	0.000000	0.000000	0.000000	0.000000	0.000000	-31.358761	417.339631	5.757573	0.000000	0.699842	0.000000	0.000000	0.000000	0.000000	-0.774013	-0.006000	-0.307436	
0.690833	0.000000	0.000000	0.000000	0.000000	0.000000	0.000000	-31.048373	416.295164	5.603973	0.000000	0.705513	0.000000	0.000000	0.000000	0.000000	-0.773138	-0.006000	-0.307739	
0.691667	0.000000	0.000000	0.000000	0.000000	0.000000	0.000000	-30.740303	415.265235	5.467986	0.000000	0.711992	0.000000	0.000000	0.000000	0.000000	-0.772394	-0.006000	-0.308017	
0.692500	0.000000	0.000000	0.000000	0.000000	0.000000	0.000000	-30.434173	414.249761	5.349088	0.000000	0.719174	0.000000	0.000000	0.000000	0.000000	-0.771814	-0.006000	-0.308211	
0.693333	0.000000	0.000000	0.000000	0.000000	0.000000	0.000000	-30.129570	413.248767	5.246713	0.000000	0.726951	0.000000	0.000000	0.000000	0.000000	-0.771369	-0.006000	-0.308268	
0.694167	0.000000	0.000000	0.000000	0.000000	0.000000	0.000000	-29.826041	412.262398	5.160259	0.000000	0.735210	0.000000	0.000000	0.000000	0.000000	-0.771002	-0.006000	-0.308172	
0.695000	0.000000	0.000000	0.000000	0.000000	0.000000	0.000000	-29.523094	411.290899	5.089091	0.000000	0.743844	0.000000	0.000000	0.000000	0.000000	-0.770661	-0.006000	-0.307971	
0.695833	0.000000	0.000000	0.000000	0.000000	0.000000	0.000000	-29.220196	410.334608	5.032534	0.000000	0.752751	0.000000	0.000000	0.000000	0.000000	-0.770313	-0.006000	-0.307739	
0.696667	0.000000	0.000000	0.000000	0.000000	0.000000	0.000000	-28.916779	409.393988	4.989869	0.000000	0.761835	0.000000	0.000000	0.000000	0.000000	-0.769932	-0.006000	-0.307536	
0.697500	0.000000	0.000000	0.000000	0.000000	0.000000	0.000000	-28.612263	408.469646	4.960318	0.000000	0.770991	0.000000	0.000000	0.000000	0.000000	-0.769512	-0.006000	-0.307414	
0.698333	0.000000	0.000000	0.000000	0.000000	0.000000	0.000000	-28.306083	407.562319	4.943042	0.000000	0.780108	0.000000	0.000000	0.000000	0.000000	-0.769056	-0.006000	-0.307412	
0.699167	0.000000	0.000000	0.000000	0.000000	0.000000	0.000000	-27.997702	406.672864	4.937149	0.000000	0.789075	0.000000	0.000000	0.000000	0.000000	-0.768568	-0.006000	-0.307539	
0.700000	0.000000	0.000000	0.000000	0.000000	0.000000	0.000000	-27.686598	405.802255	4.941711	0.000000	0.797784	0.000000	0.000000	0.000000	0.000000	-0.768065	-0.006000	-0.307775	
0.700833	0.000000	0.000000	0.000000	0.000000	0.000000	0.000000	-27.372262	404.951579	4.955770	0.000000	0.806130	0.000000	0.000000	0.000000	0.000000	-0.767567	-0.006000	-0.308061	
0.701667	0.000000	0.000000	0.000000	0.000000	0.000000	0.000000	-27.054198	404.122043	4.978354	0.000000	0.814011	0.000000	0.000000	0.000000	0.000000	-0.767059	-0.006000	-0.308293	
0.702500	0.000000	0.000000	0.000000	0.000000	0.000000	0.000000	-26.731934	403.314983	5.008504	0.000000	0.821333	0.000000	0.000000	0.000000	0.000000	-0.766485	-0.006000	-0.308377	
0.703333	0.000000	0.000000	0.000000	0.000000	0.000000	0.000000	-26.405025	402.531845	5.045294	0.000000	0.828013	0.000000	0.000000	0.000000	0.000000	-0.765798	-0.006000	-0.308292	
0.704167	0.000000	0.000000	0.000000	0.000000	0.000000	0.000000	-26.073066	401.774163	5.087833	0.000000	0.833984	0.000000	0.000000	0.000000	0.000000	-0.765000	-0.006000	-0.308107	
0.705000	0.000000	0.000000	0.000000	0.000000	0.000000	0.000000	-25.735690	401.043531	5.135265	0.000000	0.839188	0.000000	0.000000	0.000000	0.000000	-0.764105	-0.006000	-0.307929	
0.705833	0.000000	0.000000	0.000000	0.000000	0.000000	0.000000	-25.392570	400.341611	5.186754	0.000000	0.843575	0.000000	0.000000	0.000000	0.000000	-0.763120	-0.006000	-0.307856	
